<svg width="81" height="19" viewBox="0 0 81 19" fill="none" xmlns="http://www.w3.org/2000/svg">
<path d="M9.24494 0.255127L11.8641 5.89504L18.0374 6.64322L13.4829 10.8771L14.679 16.9794L9.24494 13.9561L3.8109 16.9794L5.00697 10.8771L0.452479 6.64322L6.62573 5.89504L9.24494 0.255127Z" fill="#FFC633"/>
<path d="M33.0469 0.255127L35.6661 5.89504L41.8394 6.64322L37.2849 10.8771L38.481 16.9794L33.0469 13.9561L27.6129 16.9794L28.809 10.8771L24.2545 6.64322L30.4277 5.89504L33.0469 0.255127Z" fill="#FFC633"/>
<path d="M56.8487 0.255127L59.4679 5.89504L65.6412 6.64322L61.0867 10.8771L62.2827 16.9794L56.8487 13.9561L51.4147 16.9794L52.6107 10.8771L48.0562 6.64322L54.2295 5.89504L56.8487 0.255127Z" fill="#FFC633"/>
<path d="M74.7642 16.9794L80.1982 13.9561V0.255127L77.579 5.89504L71.4058 6.64322L75.9603 10.8771L74.7642 16.9794Z" fill="#FFC633"/>
</svg>
